HIERARCHY
ROOT Hips
{
	OFFSET 228.634003 92.561920 -263.051910
	CHANNELS 6 Xposition Yposition Zposition Zrotation Yrotation Xrotation 
	JOINT LeftUpLeg
	{
		OFFSET 0.103458 1.857820 10.548502
		CHANNELS 3 Zrotation Yrotation Xrotation
		JOINT LeftLeg
		{
			OFFSET 43.500000 -0.000023 -0.000011
			CHANNELS 3 Zrotation Yrotation Xrotation
			JOINT LeftFoot
			{
				OFFSET 42.372192 0.000038 0.000002
				CHANNELS 3 Zrotation Yrotation Xrotation
				JOINT LeftToe
				{
					OFFSET 17.299992 -0.000004 0.000006
					CHANNELS 3 Zrotation Yrotation Xrotation
					End Site
					{
						OFFSET 0.000000 0.000000 0.000000
					}
				}
			}
		}
	}
	JOINT RightUpLeg
	{
		OFFSET 0.103461 1.857814 -10.548508
		CHANNELS 3 Zrotation Yrotation Xrotation
		JOINT RightLeg
		{
			OFFSET 43.500042 -0.000015 0.000008
			CHANNELS 3 Zrotation Yrotation Xrotation
			JOINT RightFoot
			{
				OFFSET 42.372253 0.000008 0.000006
				CHANNELS 3 Zrotation Yrotation Xrotation
				JOINT RightToe
				{
					OFFSET 17.299973 -0.000014 0.000011
					CHANNELS 3 Zrotation Yrotation Xrotation
					End Site
					{
						OFFSET 0.000000 0.000000 0.000000
					}
				}
			}
		}
	}
	JOINT Spine
	{
		OFFSET 6.901966 -2.603737 -0.000007
		CHANNELS 3 Zrotation Yrotation Xrotation
		JOINT Spine1
		{
			OFFSET 12.588102 0.000017 0.000001
			CHANNELS 3 Zrotation Yrotation Xrotation
			JOINT Spine2
			{
				OFFSET 12.343197 -0.000013 0.000000
				CHANNELS 3 Zrotation Yrotation Xrotation
				JOINT Neck
				{
					OFFSET 25.832905 -0.000008 0.000000
					CHANNELS 3 Zrotation Yrotation Xrotation
					JOINT Head
					{
						OFFSET 11.766610 0.000009 -0.000002
						CHANNELS 3 Zrotation Yrotation Xrotation
						End Site
						{
							OFFSET 0.000000 0.000000 0.000000
						}
					}
				}
				JOINT LeftShoulder
				{
					OFFSET 19.745903 -1.480377 6.000115
					CHANNELS 3 Zrotation Yrotation Xrotation
					JOINT LeftArm
					{
						OFFSET 11.284125 -0.000014 -0.000024
						CHANNELS 3 Zrotation Yrotation Xrotation
						JOINT LeftForeArm
						{
							OFFSET 33.000046 -0.000012 0.000029
							CHANNELS 3 Zrotation Yrotation Xrotation
							JOINT LeftHand
							{
								OFFSET 25.199989 0.000034 0.000012
								CHANNELS 3 Zrotation Yrotation Xrotation
								End Site
								{
									OFFSET 0.000000 0.000000 0.000000
								}
							}
						}
					}
				}
				JOINT RightShoulder
				{
					OFFSET 19.746098 -1.480362 -6.000071
					CHANNELS 3 Zrotation Yrotation Xrotation
					JOINT RightArm
					{
						OFFSET 11.284137 -0.000006 -0.000008
						CHANNELS 3 Zrotation Yrotation Xrotation
						JOINT RightForeArm
						{
							OFFSET 33.000095 0.000017 0.000000
							CHANNELS 3 Zrotation Yrotation Xrotation
							JOINT RightHand
							{
								OFFSET 25.199778 0.000144 0.000423
								CHANNELS 3 Zrotation Yrotation Xrotation
								End Site
								{
									OFFSET 0.000000 0.000000 0.000000
								}
							}
						}
					}
				}
			}
		}
	}
}
MOTION
Frames: 11
Frame Time: 0.033333
228.634003 92.56192 263.05191 92.384483 -7.564143 -89.072593 -169.959955 -5.142699 176.153283 -12.050998 -3.780309 -15.071528 79.999164 9.027749 -7.178291 21.454558 0.003109 1.7e-05 -173.986078 0.413187 -178.814995 -9.372701 1.48825 8.945356 72.178823 -4.811174 5.311457 21.45455 -0.003092 2e-06 7.543371 0.398158 0.06532 5.070715 0.82358 0.121795 4.752587 0.824142 0.116827 12.531188 6.434776 4.795519 -20.814296 -7.182614 8.382961 -95.120773 -78.17338 -87.596179 -8.855206 5.94856 -12.454835 -20.322529 -16.19744 1.180412 7.940363 -4.158096 17.09262 -81.124281 86.031478 100.994961 -0.101681 -9.075307 17.804963 -23.429332 15.89776 -1.184426 9.818481 1.666767 -23.891778 
228.632004 92.561523 263.049988 92.384504 -7.570261 -89.075202 -169.95281 -5.142701 176.151467 -12.052473 -3.780302 -15.071523 80.001671 9.027751 -7.178291 21.45456 0.003111 1.7e-05 -173.977991 0.413185 -178.827453 -9.370489 1.489978 8.950982 72.178823 -4.814386 5.314217 21.454555 -0.003095 0.0 7.543379 0.398158 0.065323 5.070708 0.821928 0.121797 4.752592 0.822491 0.11683 12.499386 6.434781 4.800141 -20.816712 -7.185265 8.390517 -95.152902 -78.167601 -87.564173 -8.855205 5.960482 -12.454836 -20.317069 -16.19457 1.180406 7.942066 -4.149899 17.081391 -81.196189 86.031383 100.923196 -0.10168 -9.082164 17.793783 -23.422233 15.899576 -1.184417 9.810646 1.659227 -23.885679 
228.620605 92.559624 263.041901 92.390726 -7.60268 -89.090966 -169.917307 -5.1427 176.137997 -12.063543 -3.780312 -15.071512 80.015673 9.027744 -7.183878 21.454558 0.003117 1.8e-05 -173.93518 0.416916 -178.884143 -9.356029 1.49982 8.9744 72.176016 -4.827551 5.326408 21.45455 -0.003087 -2e-06 7.543386 0.398148 0.065309 5.070703 0.813862 0.12601 4.7526 0.814459 0.121094 12.38628 6.434775 4.816836 -20.844289 -7.214743 8.427501 -95.28131 -78.151721 -87.435929 -8.853091 6.038845 -12.452963 -20.304839 -16.1758 1.180399 7.955039 -4.136319 17.084193 -81.397366 86.031526 100.722641 -0.101681 -9.124551 17.74951 -23.394163 15.88547 -1.184425 9.807363 1.647668 -23.810205 
228.607803 92.557838 263.036102 92.399147 -7.63666 -89.11035 -169.884399 -5.142697 176.12946 -12.080715 -3.780304 -15.071523 80.032564 9.027755 -7.190168 21.45456 0.003102 1.7e-05 -173.890742 0.4225 -178.929947 -9.337297 1.513074 8.989513 72.169063 -4.835973 5.334521 21.454553 -0.003084 2e-06 7.543372 0.398161 0.06532 5.072452 0.806738 0.131159 4.754317 0.807387 0.126265 12.333593 6.434772 4.824875 -20.886227 -7.257359 8.459134 -95.351838 -78.147965 -87.365134 -8.840806 6.127453 -12.472013 -20.309685 -16.155218 1.180418 7.966229 -4.10324 17.163055 -81.41634 86.030686 100.703688 -0.101681 -9.179875 17.737924 -23.377116 15.867643 -1.184425 9.838303 1.643052 -23.722953 
228.593704 92.55603 263.033386 92.40888 -7.671072 -89.133429 -169.856573 -5.142704 176.11487 -12.106367 -3.780298 -15.071519 80.04979 9.027752 -7.193687 21.454557 0.003105 1.7e-05 -173.848983 0.430989 -178.961311 -9.31969 1.53012 8.994998 72.160546 -4.838986 5.337832 21.454553 -0.003101 -1e-06 7.543371 0.398162 0.065327 5.073734 0.799767 0.137078 4.755605 0.80042 0.132254 12.31118 6.427853 4.838132 -20.92624 -7.274169 8.483851 -95.375402 -78.149645 -87.341242 -8.828265 6.1997 -12.493862 -20.306531 -16.154362 1.18041 7.981566 -3.929026 17.130488 -81.355592 86.041512 100.763336 -0.095053 -9.224383 17.784407 -23.382372 15.834221 -1.184429 9.872925 1.624701 -23.712262 
228.577698 92.5541 263.03421 92.418873 -7.705739 -89.161829 -169.833036 -5.136406 176.094817 -12.138575 -3.780305 -15.071511 80.065479 9.027754 -7.192145 21.45456 0.003104 1.6e-05 -173.812318 0.4427 -178.967636 -9.307615 1.545382 8.982851 72.15224 -4.830706 5.337224 21.45455 -0.003092 -1e-06 7.543374 0.398165 0.065317 5.074665 0.793246 0.143058 4.756542 0.793952 0.138264 12.303927 6.395737 4.865891 -20.92841 -7.22892 8.493261 -95.401029 -78.147582 -87.315554 -8.815731 6.251715 -12.510377 -20.298023 -16.155359 1.180411 7.971888 -3.901383 17.140553 -81.216482 86.057966 100.901353 -0.081978 -9.255939 17.847598 -23.416889 15.823503 -1.184423 9.870035 1.561036 -23.81947 
228.559799 92.55217 263.038696 92.429146 -7.738791 -89.193535 -169.815428 -5.127509 176.071813 -12.175874 -3.774759 -15.076396 80.080724 9.032711 -7.187167 21.454558 0.003113 1.8e-05 -173.781473 0.452591 -178.966229 -9.298522 1.552441 8.96373 72.142589 -4.816599 5.3377 21.454553 -0.003096 -1e-06 7.544502 0.395161 0.065321 5.075701 0.787115 0.148239 4.757567 0.787873 0.143477 12.297856 6.362647 4.893273 -20.911464 -7.190192 8.503183 -95.439647 -78.125404 -87.278425 -8.817329 6.279381 -12.501951 -20.290824 -16.157762 1.180419 7.947298 -3.997588 17.147661 -81.04085 86.068908 101.07609 -0.067685 -9.273417 17.891395 -23.472662 15.858419 -1.184426 9.835426 1.481629 -23.988521 
228.540298 92.550339 263.047302 92.439896 -7.767668 -89.225596 -169.806986 -5.117403 176.050585 -12.21785 -3.768819 -15.083124 80.096467 9.039701 -7.178957 21.45456 0.003107 1.8e-05 -173.757868 0.456904 -178.975873 -9.289792 1.547972 8.949593 72.130343 -4.803718 5.345359 21.454558 -0.003097 -0.0 7.546038 0.391978 0.066996 5.077268 0.781431 0.151724 4.759143 0.782191 0.146998 12.289558 6.323599 4.912245 -20.902792 -7.16328 8.509404 -95.481783 -78.094327 -87.23855 -8.808545 6.281538 -12.449716 -20.303272 -16.173162 1.180412 7.947615 -4.018421 17.107109 -80.805987 86.071749 101.311281 -0.052564 -9.27779 17.902723 -23.53453 15.921531 -1.184423 9.791275 1.487618 -23.976182 
228.518799 92.548523 263.060486 92.448762 -7.792477 -89.253934 -169.807396 -5.104708 176.037034 -12.261836 -3.763675 -15.092847 80.112593 9.049587 -7.167303 21.45456 0.003113 1.7e-05 -173.742213 0.461186 -178.98228 -9.284292 1.536486 8.933258 72.118185 -4.788239 5.355796 21.454553 -0.003101 -1e-06 7.547626 0.38841 0.068682 5.079816 0.773487 0.154661 4.761684 0.774264 0.149981 12.2746 6.274396 4.918408 -20.910539 -7.119128 8.496103 -95.49338 -78.063509 -87.229507 -8.789944 6.269325 -12.380436 -20.333869 -16.20224 1.180411 7.960611 -3.972978 17.109725 -80.694812 86.061545 101.423296 -0.045161 -9.253511 17.878746 -23.579772 15.977079 -1.184435 9.771024 1.49295 -23.955434 
228.4953 92.5466 263.077698 92.455326 -7.812784 -89.27814 -169.815373 -5.089391 176.032157 -12.304952 -3.761383 -15.105773 80.129771 9.062579 -7.152173 21.454558 0.003105 1.8e-05 -173.734659 0.467803 -178.982607 -9.282239 1.521641 8.913768 72.107113 -4.770116 5.367351 21.454553 -0.003086 0.0 7.549461 0.383873 0.069936 5.08471 0.764345 0.157023 4.766576 0.765152 0.15241 12.248783 6.231074 4.917274 -20.931851 -7.081609 8.479794 -95.504104 -78.02694 -87.22185 -8.778723 6.260854 -12.354418 -20.374429 -16.246891 1.180403 7.945968 -3.919744 17.105609 -80.718609 86.041703 101.401446 -0.043657 -9.205767 17.882029 -23.615256 15.99909 -1.184424 9.744872 1.548008 -23.888843 
228.469193 92.544487 263.099609 92.459219 -7.828166 -89.295858 -169.831738 -5.0712 176.036173 -12.346609 -3.760233 -15.120295 80.149429 9.077663 -7.133249 21.454555 0.003101 1.6e-05 -173.734317 0.478391 -178.973783 -9.278095 1.506375 8.891528 72.097305 -4.749979 5.379023 21.454553 -0.003099 0.0 7.551789 0.379453 0.070802 5.089882 0.756149 0.158235 4.771755 0.756949 0.153652 12.223511 6.201797 4.909351 -20.967625 -7.071555 8.469475 -95.555064 -78.001075 -87.172577 -8.765029 6.255935 -12.377646 -20.414341 -16.278171 1.182681 7.907763 -3.895642 17.083408 -80.805461 86.029702 101.315666 -0.018262 -9.137868 17.949778 -23.648803 15.961409 -1.184426 9.693128 1.632113 -23.836995 
